<?xml version="1.0" standalone="no"?>
<!DOCTYPE svg PUBLIC "-//W3C//DTD SVG 20010904//EN"
 "http://www.w3.org/TR/2001/REC-SVG-20010904/DTD/svg10.dtd">
<svg version="1.0"
    xmlns="http://www.w3.org/2000/svg" width="217.000000pt" height="204.000000pt" viewBox="0 0 217.000000 204.000000" preserveAspectRatio="xMidYMid meet">

    <g transform="translate(0.000000,204.000000) scale(0.100000,-0.100000)" fill="#000000" stroke="none">
        <path d="M708 1991 c-76 -25 -118 -52 -177 -116 -68 -76 -95 -146 -95 -255 0
-112 27 -180 100 -260 56 -59 138 -110 181 -110 43 0 24 28 -37 56 -67 30
-135 96 -171 165 -17 34 -24 66 -27 136 -4 83 -2 97 22 150 104 227 391 279
565 102 27 -27 53 -49 59 -49 6 0 14 16 18 36 15 81 102 136 182 114 89 -23
132 -136 82 -218 -31 -50 -27 -55 38 -47 76 9 128 -6 179 -50 105 -90 93 -269
-23 -337 -39 -23 -45 -48 -11 -48 59 0 145 121 149 210 6 139 -108 270 -236
270 l-38 0 6 44 c14 89 -30 172 -109 207 -79 36 -166 13 -225 -59 l-33 -41
-55 40 c-104 74 -231 96 -344 60z"/>
        <path d="M1028 1570 c-27 -27 -30 -35 -23 -68 4 -20 7 -44 8 -52 1 -8 -50 -88
-113 -178 -100 -141 -118 -161 -137 -157 -13 3 -38 -1 -57 -9 -88 -37 -53
-166 45 -166 11 0 34 14 51 30 27 28 30 35 24 74 -7 43 -5 45 113 212 113 160
121 169 154 171 33 1 41 -6 140 -121 102 -118 106 -124 100 -160 -7 -44 9 -79
44 -95 37 -17 59 -13 92 15 63 53 25 150 -58 148 -40 -1 -43 1 -129 99 -130
151 -123 140 -111 175 19 55 -28 112 -92 112 -11 0 -34 -14 -51 -30z m427
-410 c23 -25 13 -67 -20 -82 -52 -23 -100 46 -59 86 21 22 57 20 79 -4z m-669
-105 c21 -33 6 -72 -31 -81 -50 -13 -86 53 -49 90 24 24 61 20 80 -9z"/>
        <path d="M1050 1240 c0 -17 7 -20 49 -20 33 0 51 5 54 14 8 21 -2 26 -55 26
-41 0 -48 -3 -48 -20z"/>
        <path d="M307 1059 c-101 -24 -199 -105 -242 -201 -32 -71 -40 -163 -15 -163
10 0 19 20 28 65 7 35 24 83 37 106 50 86 157 154 241 154 33 0 60 22 49 40
-7 12 -45 12 -98 -1z"/>
        <path d="M1774 1055 c-9 -22 12 -35 57 -35 20 0 63 -14 97 -30 98 -49 157
-132 170 -238 5 -41 12 -58 23 -60 24 -4 30 21 19 80 -30 156 -150 269 -313
293 -39 6 -48 4 -53 -10z"/>
        <path d="M300 914 c-45 -19 -87 -60 -109 -104 -35 -69 -33 -131 3 -117 10 4
16 18 16 37 0 65 70 144 137 155 56 10 65 14 61 28 -7 18 -68 19 -108 1z"/>
        <path d="M1772 913 c2 -12 16 -20 39 -24 79 -12 133 -64 154 -146 14 -55 38
-65 43 -17 9 95 -98 203 -201 204 -31 0 -38 -3 -35 -17z"/>
        <path d="M1410 639 c-85 -95 -174 -194 -198 -221 -40 -48 -46 -68 -18 -68 11
0 316 327 386 413 14 17 27 5 210 -198 179 -197 225 -238 225 -197 0 7 -87
109 -194 227 -174 193 -197 215 -225 215 -28 0 -49 -19 -186 -171z"/>
        <path d="M329 771 l-29 -29 0 -331 0 -330 24 -28 24 -28 206 0 c200 0 206 1
228 23 23 22 23 24 26 358 l3 335 -30 29 -29 30 -197 0 -197 0 -29 -29z m425
-33 c14 -19 16 -67 16 -326 0 -190 -4 -311 -10 -323 -10 -18 -23 -19 -203 -19
-137 0 -196 3 -205 12 -9 9 -12 96 -12 329 0 275 2 320 16 333 13 13 45 16
199 16 179 0 184 -1 199 -22z"/>
        <path d="M507 194 c-4 -4 -7 -14 -7 -21 0 -11 13 -13 53 -11 38 2 52 7 52 18
0 11 -13 16 -45 18 -25 2 -49 0 -53 -4z"/>
        <path d="M1307 323 c-4 -3 -7 -64 -7 -134 0 -181 -19 -171 308 -167 239 3 254
4 268 23 21 29 16 280 -6 280 -12 0 -15 -22 -18 -127 l-3 -128 -254 0 -255 0
0 130 c0 102 -3 130 -13 130 -8 0 -17 -3 -20 -7z"/>
    </g>
</svg>
